<svg id="Layer_1" data-name="Layer 1" xmlns="http://www.w3.org/2000/svg" viewBox="0 0 227 36"><defs><style>.cls-1{fill:#054a91;}</style></defs><title>Artboard 1</title><path class="cls-1" d="M33,2.82V7.94H10.1v8H28.89v4.79H10.1V32.62H4V2.82Z"/><path class="cls-1" d="M48.84,33.18a19.64,19.64,0,0,1-7.63-1.38,11.61,11.61,0,0,1-5.13-4,11.14,11.14,0,0,1-1.84-6.52,11.36,11.36,0,0,1,1.84-6.57,11.42,11.42,0,0,1,5.13-4.07,19.64,19.64,0,0,1,7.63-1.38,19.23,19.23,0,0,1,7.57,1.38,11.36,11.36,0,0,1,5.09,4.07,11.37,11.37,0,0,1,1.85,6.57,11.14,11.14,0,0,1-1.85,6.52,11.55,11.55,0,0,1-5.09,4A19.23,19.23,0,0,1,48.84,33.18Zm0-4.61a10.41,10.41,0,0,0,4.3-.85,6.71,6.71,0,0,0,4.13-6.47,7.14,7.14,0,0,0-1.11-4,7,7,0,0,0-3-2.56,10.27,10.27,0,0,0-4.33-.87,10.43,10.43,0,0,0-4.33.87,7.28,7.28,0,0,0-3.07,2.53,7.07,7.07,0,0,0-1.12,4.06,6.92,6.92,0,0,0,1.1,4,7,7,0,0,0,3,2.49A10.73,10.73,0,0,0,48.84,28.57Z"/><path class="cls-1" d="M67.77,9.73h6V32.62h-6Zm16.63-.5a13.2,13.2,0,0,1,3.91.55,8.71,8.71,0,0,1,3.13,1.7,7.85,7.85,0,0,1,2.08,2.93,10.94,10.94,0,0,1,.73,4.21v14h-6V19.68a5.7,5.7,0,0,0-1.41-4.26c-.94-.9-2.46-1.36-4.58-1.36A10,10,0,0,0,78,15a9.23,9.23,0,0,0-3.13,2.33,5.59,5.59,0,0,0-1.39,2.92l0-2.35a9.07,9.07,0,0,1,1.06-3.13A10.62,10.62,0,0,1,80,10,12.27,12.27,0,0,1,84.4,9.23Z"/><path class="cls-1" d="M98.77,25h5.53a4.63,4.63,0,0,0,2.09,2.56,7.8,7.8,0,0,0,4.17,1,9.17,9.17,0,0,0,2.72-.32,2.31,2.31,0,0,0,1.33-.95,2.64,2.64,0,0,0,.37-1.4,1.9,1.9,0,0,0-.6-1.5,4.58,4.58,0,0,0-1.84-.85q-1.25-.32-3.18-.6c-1.29-.21-2.53-.47-3.73-.78A14,14,0,0,1,102.45,21,6.14,6.14,0,0,1,100.27,19a4.94,4.94,0,0,1-.81-2.88,5.41,5.41,0,0,1,.81-2.94A6.6,6.6,0,0,1,102.52,11a11.67,11.67,0,0,1,3.41-1.33,18.17,18.17,0,0,1,4.21-.46,14.13,14.13,0,0,1,5.67,1A7.47,7.47,0,0,1,119.2,13a7.44,7.44,0,0,1,1.12,4.08H115a3.83,3.83,0,0,0-1.48-2.47,6,6,0,0,0-3.41-.76,6.7,6.7,0,0,0-3.4.69,2.12,2.12,0,0,0-1.16,1.89,1.74,1.74,0,0,0,.72,1.5,5.67,5.67,0,0,0,2.12.85c.93.22,2.11.45,3.52.69,1.2.25,2.34.52,3.43.83a14.21,14.21,0,0,1,2.93,1.17,5.75,5.75,0,0,1,2,1.89,5.46,5.46,0,0,1,.76,3A5.64,5.64,0,0,1,119.84,30a7.86,7.86,0,0,1-3.62,2.33,17.22,17.22,0,0,1-5.61.81,17.82,17.82,0,0,1-5-.62,11.72,11.72,0,0,1-3.48-1.62A8.29,8.29,0,0,1,100,28.82a7.36,7.36,0,0,1-1-2.14A4.35,4.35,0,0,1,98.77,25Z"/><path class="cls-1" d="M124.06,9.73h17.78v4.65H124.06ZM130,3.47h6V32.62h-6Z"/><path class="cls-1" d="M158.83,33.18a19.55,19.55,0,0,1-7.62-1.38,11.59,11.59,0,0,1-5.14-4,11.14,11.14,0,0,1-1.84-6.52,11.36,11.36,0,0,1,1.84-6.57,11.39,11.39,0,0,1,5.14-4.07,19.55,19.55,0,0,1,7.62-1.38,19.28,19.28,0,0,1,7.58,1.38,11.47,11.47,0,0,1,5.09,4.07,11.36,11.36,0,0,1,1.84,6.57,11.14,11.14,0,0,1-1.84,6.52,11.66,11.66,0,0,1-5.09,4A19.28,19.28,0,0,1,158.83,33.18Zm0-4.61a10.46,10.46,0,0,0,4.31-.85,6.72,6.72,0,0,0,4.12-6.47,7.14,7.14,0,0,0-1.11-4,7,7,0,0,0-3-2.56,10.24,10.24,0,0,0-4.33-.87,10.43,10.43,0,0,0-4.33.87,7.19,7.19,0,0,0-3.06,2.53,7.08,7.08,0,0,0-1.13,4.06,6.68,6.68,0,0,0,4.15,6.47A10.68,10.68,0,0,0,158.83,28.57Z"/><path class="cls-1" d="M177.76,9.73h6V32.62h-6Zm14.79,4.93A9.4,9.4,0,0,0,185,18.07a9.09,9.09,0,0,0-1.61,2.76l-.05-2.53a8.63,8.63,0,0,1,.37-1.64,14,14,0,0,1,1-2.35,11.82,11.82,0,0,1,1.7-2.44A8.42,8.42,0,0,1,189,10a8.07,8.07,0,0,1,3.55-.73Z"/><path class="cls-1" d="M217.1,25h5.8a8.24,8.24,0,0,1-2,4.2,10.71,10.71,0,0,1-4.3,2.9A18.47,18.47,0,0,1,210,33.18a19.86,19.86,0,0,1-7.74-1.41A11.68,11.68,0,0,1,197,27.7a10.87,10.87,0,0,1-1.89-6.45A11.15,11.15,0,0,1,197,14.78a11.71,11.71,0,0,1,5.14-4.13,19.26,19.26,0,0,1,7.71-1.42,17.47,17.47,0,0,1,7.51,1.42A9.34,9.34,0,0,1,221.77,15,14.5,14.5,0,0,1,223,22.31H201.16a6.57,6.57,0,0,0,1.31,3.17,7.35,7.35,0,0,0,2.95,2.26,11,11,0,0,0,4.45.83,10.26,10.26,0,0,0,4.76-1A4.71,4.71,0,0,0,217.1,25Zm-7.56-11.23a9.15,9.15,0,0,0-5.38,1.45,6.41,6.41,0,0,0-2.68,3.57h15.57a4.86,4.86,0,0,0-2.19-3.67A9.21,9.21,0,0,0,209.54,13.79Z"/></svg>